{
  "accessors": [
    {
      "bufferView": 0,
      "componentType": 5125,
      "count": 1002,
      "type": "SCALAR"
    },
    {
      "bufferView": 1,
      "componentType": 5126,
      "count": 597,
      "max": [
        0.874922513961792,
        0.999999940395355,
        0.981656491756439
      ],
      "min": [
        -0.874922513961792,
        -1.00000011920929,
        -0.981657803058624
      ],
      "type": "VEC3"
    },
    {
      "bufferView": 2,
      "componentType": 5126,
      "count": 597,
      "type": "VEC3"
    },
    {
      "bufferView": 3,
      "componentType": 5126,
      "count": 597,
      "type": "VEC2"
    }
  ],
  "asset": {
    "generator": "Substance Painter 2019.2.0",
    "version": "2.0"
  },
  "bufferViews": [
    {
      "buffer": 0,
      "byteLength": 4008,
      "target": 34963
    },
    {
      "buffer": 0,
      "byteLength": 7164,
      "byteOffset": 4008,
      "target": 34962
    },
    {
      "buffer": 0,
      "byteLength": 7164,
      "byteOffset": 11172,
      "target": 34962
    },
    {
      "buffer": 0,
      "byteLength": 4776,
      "byteOffset": 18336,
      "target": 34962
    }
  ],
  "buffers": [
    {
      "byteLength": 23112,
      "uri": "Untitled.bin"
    }
  ],
  "images": [
    {
      "uri": "DestructibleMat.004_baseColor.png"
    },
    {
      "uri": "DestructibleMat.004_occlusionRoughnessMetallic.png"
    },
    {
      "uri": "DestructibleMat.004_normal.png"
    }
  ],
  "materials": [
    {
      "alphaMode": "OPAQUE",
      "name": "DestructibleMat.004",
      "normalTexture": {
        "index": 2
      },
      "occlusionTexture": {
        "index": 1
      },
      "pbrMetallicRoughness": {
        "baseColorTexture": {
          "index": 0
        },
        "metallicRoughnessTexture": {
          "index": 1
        }
      }
    }
  ],
  "meshes": [
    {
      "name": "Destructible.006",
      "primitives": [
        {
          "attributes": {
            "NORMAL": 2,
            "POSITION": 1,
            "TEXCOORD_0": 3
          },
          "indices": 0,
          "material": 0,
          "mode": 4
        }
      ]
    }
  ],
  "nodes": [
    {
      "children": [
        1
      ],
      "name": "root",
      "scale": [
        188.897171020508,
        188.897171020508,
        188.897171020508
      ],
      "translation": [
        371.921569824219,
        470.669616699219,
        3039.34130859375
      ]
    },
    {
      "children": [
        2
      ],
      "name": "Destructible.006"
    },
    {
      "mesh": 0,
      "name": "Destructible.006"
    }
  ],
  "samplers": [
    {
      "magFilter": 9729,
      "minFilter": 9985,
      "wrapS": 10497,
      "wrapT": 10497
    }
  ],
  "scene": 0,
  "scenes": [
    {
      "name": "Scene",
      "nodes": [
        0
      ]
    }
  ],
  "textures": [
    {
      "sampler": 0,
      "source": 0
    },
    {
      "sampler": 0,
      "source": 1
    },
    {
      "sampler": 0,
      "source": 2
    }
  ]
}